<?xml version="1.0" standalone="no"?><!DOCTYPE svg PUBLIC "-//W3C//DTD SVG 1.1//EN" "http://www.w3.org/Graphics/SVG/1.1/DTD/svg11.dtd"><svg t="1672891749717" class="icon" viewBox="0 0 1024 1024" version="1.1" xmlns="http://www.w3.org/2000/svg" p-id="1160" xmlns:xlink="http://www.w3.org/1999/xlink" width="200" height="200"><path d="M0 0h1024v1024H0z" fill="#FF0033" fill-opacity="0" p-id="1161"></path><path d="M538.304 525.781333c-25.898667 0-46.869333-20.394667-46.869333-45.568v-60.757333c0-25.173333 20.970667-45.546667 46.869333-45.546667 25.877333 0 46.890667 20.373333 46.890667 45.546667v60.757333c0 25.173333-21.013333 45.568-46.890667 45.568z m186.581333 0c-25.877333 0-46.890667-20.394667-46.890666-45.568v-60.757333c0-25.173333 21.013333-45.546667 46.890666-45.546667s46.890667 20.373333 46.890667 45.546667v60.757333c0 25.173333-21.013333 45.568-46.890667 45.568z m-202.197333-437.12c-79.274667 0-155.797333 20.608-223.189333 59.541334C261.845333 108.096 207.232 85.333333 145.002667 85.333333c-11.370667 0-21.824 6.037333-27.306667 15.701334a29.76 29.76 0 0 0 0.853333 30.890666c0.362667 0.490667 32.768 51.541333 40.917334 129.898667 1.642667 15.637333 15.232 27.306667 31.082666 27.306667 1.066667 0 2.090667-0.042667 3.2-0.170667 17.152-1.706667 29.674667-16.576 27.946667-33.28-4.266667-40.789333-14.08-75.264-23.936-101.354667 23.914667 7.765333 49.792 22.613333 68.522667 50.688 0.085333 0.149333 0.256 0.213333 0.341333 0.362667 0.085333 0.128 0.085333 0.234667 0.149333 0.362667 1.130667 1.578667 2.730667 2.517333 4.053334 3.84 1.514667 1.450667 2.794667 3.157333 4.544 4.245333 1.792 1.130667 3.818667 1.6 5.76 2.346667 1.770667 0.682667 3.413333 1.664 5.248 2.026666 2.026667 0.384 4.053333 0.128 6.101333 0.128 1.962667 0 3.904 0.298667 5.866667-0.064 1.941333-0.362667 3.669333-1.365333 5.504-2.112 1.92-0.725333 3.882667-1.066667 5.653333-2.133333 0.128-0.106667 0.192-0.256 0.341333-0.341333l0.426667-0.149334A380.352 380.352 0 0 1 522.666667 149.418667c206.656 0 374.805333 163.413333 374.805333 364.266666 0 200.874667-168.149333 364.266667-374.826667 364.266667-206.656 0-374.826667-163.413333-374.826666-364.266667 0-51.413333 10.794667-101.12 32.106666-147.712 6.997333-15.317333-0.085333-33.28-15.872-40.106666-15.765333-6.805333-34.24 0.106667-41.258666 15.445333A412.010667 412.010667 0 0 0 85.333333 513.664C85.333333 748.010667 281.536 938.666667 522.666667 938.666667 763.861333 938.666667 960 748.010667 960 513.664c0-234.346667-196.16-424.981333-437.333333-424.981333z" fill="#111111" p-id="1162"></path></svg>