<?xml version="1.0" standalone="no"?><!DOCTYPE svg PUBLIC "-//W3C//DTD SVG 1.1//EN" "http://www.w3.org/Graphics/SVG/1.1/DTD/svg11.dtd"><svg t="1672891875640" class="icon" viewBox="0 0 1024 1024" version="1.1" xmlns="http://www.w3.org/2000/svg" p-id="1475" xmlns:xlink="http://www.w3.org/1999/xlink" width="200" height="200"><path d="M0 0h1024v1024H0z" fill="#FF0000" fill-opacity="0" p-id="1476"></path><path d="M475.498667 102.656a85.333333 85.333333 0 0 1 73.088 0l341.290666 161.770667A85.333333 85.333333 0 0 1 938.666667 341.525333V853.333333a85.333333 85.333333 0 0 1-85.333334 85.333334H170.666667a85.333333 85.333333 0 0 1-85.333334-85.333334V341.546667a85.333333 85.333333 0 0 1 48.789334-77.12L475.52 102.656z m45.674666 57.813333a21.333333 21.333333 0 0 0-18.261333 0L161.536 322.282667A21.333333 21.333333 0 0 0 149.333333 341.546667V853.333333a21.333333 21.333333 0 0 0 21.333334 21.333334h682.666666a21.333333 21.333333 0 0 0 21.333334-21.333334V341.546667a21.333333 21.333333 0 0 0-12.202667-19.285334L521.173333 160.490667z" fill="#000000" p-id="1477"></path><path d="M597.333333 565.333333a117.333333 117.333333 0 0 1 117.333334 117.333334v234.666666h-64V682.666667a53.333333 53.333333 0 0 0-53.333334-53.333334h-106.666666a53.333333 53.333333 0 0 0-53.333334 53.333334v234.666666h-64V682.666667a117.333333 117.333333 0 0 1 117.333334-117.333334h106.666666z" fill="#000000" p-id="1478"></path></svg>